<svg width="100%" height="100%" id="svg" viewBox="0 0 1440 600" xmlns="http://www.w3.org/2000/svg" class="transition duration-300 ease-in-out delay-150"><defs><linearGradient id="gradient" x1="50%" y1="0%" x2="50%" y2="100%"><stop offset="5%" stop-color="#101015"></stop><stop offset="95%" stop-color="#101015"></stop></linearGradient></defs><path d="M 0,600 C 0,600 0,200 0,200 C 161.59999999999997,197.73333333333335 323.19999999999993,195.46666666666667 501,189 C 678.8000000000001,182.53333333333333 872.8,171.86666666666665 1032,173 C 1191.2,174.13333333333335 1315.6,187.06666666666666 1440,200 C 1440,200 1440,600 1440,600 Z" stroke="none" stroke-width="0" fill="url(#gradient)" fill-opacity="0.53" class="transition-all duration-300 ease-in-out delay-150 path-0" transform="rotate(-180 720 300)"></path><defs><linearGradient id="gradient" x1="50%" y1="0%" x2="50%" y2="100%"><stop offset="5%" stop-color="#101015"></stop><stop offset="95%" stop-color="#101015"></stop></linearGradient></defs><path d="M 0,600 C 0,600 0,400 0,400 C 184.53333333333336,396.26666666666665 369.0666666666667,392.5333333333333 539,382 C 708.9333333333333,371.4666666666667 864.2666666666667,354.1333333333334 1012,356 C 1159.7333333333333,357.8666666666666 1299.8666666666668,378.9333333333333 1440,400 C 1440,400 1440,600 1440,600 Z" stroke="none" stroke-width="0" fill="url(#gradient)" fill-opacity="1" class="transition-all duration-300 ease-in-out delay-150 path-1" transform="rotate(-180 720 300)"></path></svg>