<svg width="100%" height="100%" id="svg" viewBox="0 0 1440 600" xmlns="http://www.w3.org/2000/svg" class="transition duration-300 ease-in-out delay-150"><defs><linearGradient id="gradient" x1="50%" y1="0%" x2="50%" y2="100%"><stop offset="5%" stop-color="#101015"></stop><stop offset="95%" stop-color="#101015"></stop></linearGradient></defs><path d="M 0,600 C 0,600 0,200 0,200 C 189.86666666666667,171.33333333333331 379.73333333333335,142.66666666666666 551,159 C 722.2666666666667,175.33333333333334 874.9333333333334,236.66666666666669 1020,251 C 1165.0666666666666,265.3333333333333 1302.5333333333333,232.66666666666666 1440,200 C 1440,200 1440,600 1440,600 Z" stroke="none" stroke-width="0" fill="url(#gradient)" fill-opacity="0.53" class="transition-all duration-300 ease-in-out delay-150 path-0"></path><defs><linearGradient id="gradient" x1="50%" y1="0%" x2="50%" y2="100%"><stop offset="5%" stop-color="#2c2c2c"></stop><stop offset="95%" stop-color="#101015"></stop></linearGradient></defs><path d="M 0,600 C 0,600 0,400 0,400 C 157.7333333333333,435.4666666666667 315.4666666666666,470.93333333333334 493,456 C 670.5333333333334,441.06666666666666 867.8666666666666,375.73333333333335 1029,358 C 1190.1333333333334,340.26666666666665 1315.0666666666666,370.1333333333333 1440,400 C 1440,400 1440,600 1440,600 Z" stroke="none" stroke-width="0" fill="url(#gradient)" fill-opacity="1" class="transition-all duration-300 ease-in-out delay-150 path-1"></path></svg>