<svg xmlns="http://www.w3.org/2000/svg" version="1.1" xmlns:xlink="http://www.w3.org/1999/xlink" xmlns:svgjs="http://svgjs.com/svgjs" width="560" height="1440" preserveAspectRatio="none" viewBox="0 0 560 1440"><g mask="url(&quot;#SvgjsMask1026&quot;)" fill="none"><path d="M-97.96 978.38L-97.96 978.38" stroke="rgba(101, 19, 99, 0.24)" stroke-width="1.5"></path><path d="M-97.96 978.38L37.79 976.75" stroke="rgba(101, 19, 99, 0.24)" stroke-width="1.5"></path><path d="M-97.96 978.38L-66.5 1119.69" stroke="rgba(101, 19, 99, 0.24)" stroke-width="1.5"></path><path d="M-97.96 978.38L104.31 1094.18" stroke="rgba(101, 19, 99, 0.24)" stroke-width="1.5"></path><path d="M-97.96 978.38L-97.96 1283.23" stroke="rgba(101, 19, 99, 0.24)" stroke-width="1.5"></path><path d="M-66.5 1119.69L-66.5 1119.69" stroke="rgba(101, 19, 99, 0.24)" stroke-width="1.5"></path><path d="M-66.5 1119.69L-97.96 1283.23" stroke="rgba(101, 19, 99, 0.24)" stroke-width="1.5"></path><path d="M-97.96 1283.23L-97.96 1283.23" stroke="rgba(101, 19, 99, 0.24)" stroke-width="1.5"></path><path d="M-97.96 1283.23L40.59 1299.8" stroke="rgba(101, 19, 99, 0.24)" stroke-width="1.5"></path><path d="M-97.96 1283.23L-59.08 1452.46" stroke="rgba(101, 19, 99, 0.24)" stroke-width="1.5"></path><path d="M-97.96 1283.23L112.1 1406.77" stroke="rgba(101, 19, 99, 0.24)" stroke-width="1.5"></path><path d="M-97.96 1283.23L104.31 1094.18" stroke="rgba(101, 19, 99, 0.24)" stroke-width="1.5"></path><path d="M-59.08 1452.46L-59.08 1452.46" stroke="rgba(101, 19, 99, 0.24)" stroke-width="1.5"></path><path d="M-59.08 1452.46L82.14 1542.62" stroke="rgba(101, 19, 99, 0.24)" stroke-width="1.5"></path><path d="M-59.08 1452.46L112.1 1406.77" stroke="rgba(101, 19, 99, 0.24)" stroke-width="1.5"></path><path d="M37.79 976.75L37.79 976.75" stroke="rgba(101, 19, 99, 0.24)" stroke-width="1.5"></path><path d="M37.79 976.75L104.31 1094.18" stroke="rgba(101, 19, 99, 0.24)" stroke-width="1.5"></path><path d="M37.79 976.75L-66.5 1119.69" stroke="rgba(101, 19, 99, 0.24)" stroke-width="1.5"></path><path d="M104.31 1094.18L104.31 1094.18" stroke="rgba(101, 19, 99, 0.24)" stroke-width="1.5"></path><path d="M104.31 1094.18L205.01 1120.85" stroke="rgba(101, 19, 99, 0.24)" stroke-width="1.5"></path><path d="M40.59 1299.8L40.59 1299.8" stroke="rgba(101, 19, 99, 0.24)" stroke-width="1.5"></path><path d="M40.59 1299.8L112.1 1406.77" stroke="rgba(101, 19, 99, 0.24)" stroke-width="1.5"></path><path d="M40.59 1299.8L-59.08 1452.46" stroke="rgba(101, 19, 99, 0.24)" stroke-width="1.5"></path><path d="M40.59 1299.8L238.77 1266.28" stroke="rgba(101, 19, 99, 0.24)" stroke-width="1.5"></path><path d="M40.59 1299.8L198.04 1425.08" stroke="rgba(101, 19, 99, 0.24)" stroke-width="1.5"></path><path d="M112.1 1406.77L112.1 1406.77" stroke="rgba(101, 19, 99, 0.24)" stroke-width="1.5"></path><path d="M112.1 1406.77L198.04 1425.08" stroke="rgba(101, 19, 99, 0.24)" stroke-width="1.5"></path><path d="M112.1 1406.77L82.14 1542.62" stroke="rgba(101, 19, 99, 0.24)" stroke-width="1.5"></path><path d="M112.1 1406.77L238.77 1266.28" stroke="rgba(101, 19, 99, 0.24)" stroke-width="1.5"></path><path d="M82.14 1542.62L82.14 1542.62" stroke="rgba(101, 19, 99, 0.24)" stroke-width="1.5"></path><path d="M82.14 1542.62L231.33 1596.84" stroke="rgba(101, 19, 99, 0.24)" stroke-width="1.5"></path><path d="M82.14 1542.62L198.04 1425.08" stroke="rgba(101, 19, 99, 0.24)" stroke-width="1.5"></path><path d="M82.14 1542.62L40.59 1299.8" stroke="rgba(101, 19, 99, 0.24)" stroke-width="1.5"></path><path d="M251.21 711.54L251.21 711.54" stroke="rgba(101, 19, 99, 0.24)" stroke-width="1.5"></path><path d="M251.21 711.54L241.79 795.86" stroke="rgba(101, 19, 99, 0.24)" stroke-width="1.5"></path><path d="M251.21 711.54L370.64 689.68" stroke="rgba(101, 19, 99, 0.24)" stroke-width="1.5"></path><path d="M241.79 795.86L241.79 795.86" stroke="rgba(101, 19, 99, 0.24)" stroke-width="1.5"></path><path d="M241.79 795.86L344.66 798.8" stroke="rgba(101, 19, 99, 0.24)" stroke-width="1.5"></path><path d="M220.9 959.08L220.9 959.08" stroke="rgba(101, 19, 99, 0.24)" stroke-width="1.5"></path><path d="M220.9 959.08L205.01 1120.85" stroke="rgba(101, 19, 99, 0.24)" stroke-width="1.5"></path><path d="M220.9 959.08L241.79 795.86" stroke="rgba(101, 19, 99, 0.24)" stroke-width="1.5"></path><path d="M205.01 1120.85L205.01 1120.85" stroke="rgba(101, 19, 99, 0.24)" stroke-width="1.5"></path><path d="M205.01 1120.85L345.11 1127.55" stroke="rgba(101, 19, 99, 0.24)" stroke-width="1.5"></path><path d="M238.77 1266.28L238.77 1266.28" stroke="rgba(101, 19, 99, 0.24)" stroke-width="1.5"></path><path d="M238.77 1266.28L205.01 1120.85" stroke="rgba(101, 19, 99, 0.24)" stroke-width="1.5"></path><path d="M238.77 1266.28L198.04 1425.08" stroke="rgba(101, 19, 99, 0.24)" stroke-width="1.5"></path><path d="M238.77 1266.28L345.11 1127.55" stroke="rgba(101, 19, 99, 0.24)" stroke-width="1.5"></path><path d="M238.77 1266.28L412.49 1298.64" stroke="rgba(101, 19, 99, 0.24)" stroke-width="1.5"></path><path d="M198.04 1425.08L198.04 1425.08" stroke="rgba(101, 19, 99, 0.24)" stroke-width="1.5"></path><path d="M198.04 1425.08L231.33 1596.84" stroke="rgba(101, 19, 99, 0.24)" stroke-width="1.5"></path><path d="M231.33 1596.84L231.33 1596.84" stroke="rgba(101, 19, 99, 0.24)" stroke-width="1.5"></path><path d="M231.33 1596.84L339.24 1605.43" stroke="rgba(101, 19, 99, 0.24)" stroke-width="1.5"></path><path d="M231.33 1596.84L112.1 1406.77" stroke="rgba(101, 19, 99, 0.24)" stroke-width="1.5"></path><path d="M231.33 1596.84L516.94 1564.43" stroke="rgba(101, 19, 99, 0.24)" stroke-width="1.5"></path><path d="M346.46 -107.65L346.46 -107.65" stroke="rgba(101, 19, 99, 0.24)" stroke-width="1.5"></path><path d="M346.46 -107.65L373.22 77.29" stroke="rgba(101, 19, 99, 0.24)" stroke-width="1.5"></path><path d="M346.46 -107.65L551.62 -111.7" stroke="rgba(101, 19, 99, 0.24)" stroke-width="1.5"></path><path d="M346.46 -107.65L508.16 73.32" stroke="rgba(101, 19, 99, 0.24)" stroke-width="1.5"></path><path d="M346.46 -107.65L680.09 -87.13" stroke="rgba(101, 19, 99, 0.24)" stroke-width="1.5"></path><path d="M346.46 -107.65L349.87 254.6" stroke="rgba(101, 19, 99, 0.24)" stroke-width="1.5"></path><path d="M373.22 77.29L373.22 77.29" stroke="rgba(101, 19, 99, 0.24)" stroke-width="1.5"></path><path d="M373.22 77.29L508.16 73.32" stroke="rgba(101, 19, 99, 0.24)" stroke-width="1.5"></path><path d="M373.22 77.29L349.87 254.6" stroke="rgba(101, 19, 99, 0.24)" stroke-width="1.5"></path><path d="M373.22 77.29L544.17 208.87" stroke="rgba(101, 19, 99, 0.24)" stroke-width="1.5"></path><path d="M373.22 77.29L551.62 -111.7" stroke="rgba(101, 19, 99, 0.24)" stroke-width="1.5"></path><path d="M373.22 77.29L670.63 106.68" stroke="rgba(101, 19, 99, 0.24)" stroke-width="1.5"></path><path d="M349.87 254.6L349.87 254.6" stroke="rgba(101, 19, 99, 0.24)" stroke-width="1.5"></path><path d="M349.87 254.6L544.17 208.87" stroke="rgba(101, 19, 99, 0.24)" stroke-width="1.5"></path><path d="M349.87 254.6L508.16 73.32" stroke="rgba(101, 19, 99, 0.24)" stroke-width="1.5"></path><path d="M348.89 550.07L348.89 550.07" stroke="rgba(101, 19, 99, 0.24)" stroke-width="1.5"></path><path d="M348.89 550.07L370.64 689.68" stroke="rgba(101, 19, 99, 0.24)" stroke-width="1.5"></path><path d="M348.89 550.07L492.78 554.28" stroke="rgba(101, 19, 99, 0.24)" stroke-width="1.5"></path><path d="M348.89 550.07L513.21 640.63" stroke="rgba(101, 19, 99, 0.24)" stroke-width="1.5"></path><path d="M348.89 550.07L251.21 711.54" stroke="rgba(101, 19, 99, 0.24)" stroke-width="1.5"></path><path d="M348.89 550.07L344.66 798.8" stroke="rgba(101, 19, 99, 0.24)" stroke-width="1.5"></path><path d="M348.89 550.07L241.79 795.86" stroke="rgba(101, 19, 99, 0.24)" stroke-width="1.5"></path><path d="M370.64 689.68L370.64 689.68" stroke="rgba(101, 19, 99, 0.24)" stroke-width="1.5"></path><path d="M370.64 689.68L344.66 798.8" stroke="rgba(101, 19, 99, 0.24)" stroke-width="1.5"></path><path d="M370.64 689.68L513.21 640.63" stroke="rgba(101, 19, 99, 0.24)" stroke-width="1.5"></path><path d="M370.64 689.68L241.79 795.86" stroke="rgba(101, 19, 99, 0.24)" stroke-width="1.5"></path><path d="M344.66 798.8L344.66 798.8" stroke="rgba(101, 19, 99, 0.24)" stroke-width="1.5"></path><path d="M344.66 798.8L251.21 711.54" stroke="rgba(101, 19, 99, 0.24)" stroke-width="1.5"></path><path d="M391.81 938.81L391.81 938.81" stroke="rgba(101, 19, 99, 0.24)" stroke-width="1.5"></path><path d="M391.81 938.81L344.66 798.8" stroke="rgba(101, 19, 99, 0.24)" stroke-width="1.5"></path><path d="M391.81 938.81L220.9 959.08" stroke="rgba(101, 19, 99, 0.24)" stroke-width="1.5"></path><path d="M345.11 1127.55L345.11 1127.55" stroke="rgba(101, 19, 99, 0.24)" stroke-width="1.5"></path><path d="M345.11 1127.55L492.92 1140.63" stroke="rgba(101, 19, 99, 0.24)" stroke-width="1.5"></path><path d="M345.11 1127.55L412.49 1298.64" stroke="rgba(101, 19, 99, 0.24)" stroke-width="1.5"></path><path d="M412.49 1298.64L412.49 1298.64" stroke="rgba(101, 19, 99, 0.24)" stroke-width="1.5"></path><path d="M412.49 1298.64L523.83 1305.11" stroke="rgba(101, 19, 99, 0.24)" stroke-width="1.5"></path><path d="M339.24 1605.43L339.24 1605.43" stroke="rgba(101, 19, 99, 0.24)" stroke-width="1.5"></path><path d="M339.24 1605.43L516.94 1564.43" stroke="rgba(101, 19, 99, 0.24)" stroke-width="1.5"></path><path d="M339.24 1605.43L198.04 1425.08" stroke="rgba(101, 19, 99, 0.24)" stroke-width="1.5"></path><path d="M339.24 1605.43L82.14 1542.62" stroke="rgba(101, 19, 99, 0.24)" stroke-width="1.5"></path><path d="M551.62 -111.7L551.62 -111.7" stroke="rgba(101, 19, 99, 0.24)" stroke-width="1.5"></path><path d="M551.62 -111.7L680.09 -87.13" stroke="rgba(101, 19, 99, 0.24)" stroke-width="1.5"></path><path d="M551.62 -111.7L508.16 73.32" stroke="rgba(101, 19, 99, 0.24)" stroke-width="1.5"></path><path d="M508.16 73.32L508.16 73.32" stroke="rgba(101, 19, 99, 0.24)" stroke-width="1.5"></path><path d="M508.16 73.32L544.17 208.87" stroke="rgba(101, 19, 99, 0.24)" stroke-width="1.5"></path><path d="M508.16 73.32L670.63 106.68" stroke="rgba(101, 19, 99, 0.24)" stroke-width="1.5"></path><path d="M508.16 73.32L680.09 -87.13" stroke="rgba(101, 19, 99, 0.24)" stroke-width="1.5"></path><path d="M544.17 208.87L544.17 208.87" stroke="rgba(101, 19, 99, 0.24)" stroke-width="1.5"></path><path d="M544.17 208.87L670.63 106.68" stroke="rgba(101, 19, 99, 0.24)" stroke-width="1.5"></path><path d="M544.17 208.87L704.89 257.88" stroke="rgba(101, 19, 99, 0.24)" stroke-width="1.5"></path><path d="M544.17 208.87L706.93 406.85" stroke="rgba(101, 19, 99, 0.24)" stroke-width="1.5"></path><path d="M492.78 554.28L492.78 554.28" stroke="rgba(101, 19, 99, 0.24)" stroke-width="1.5"></path><path d="M492.78 554.28L513.21 640.63" stroke="rgba(101, 19, 99, 0.24)" stroke-width="1.5"></path><path d="M513.21 640.63L513.21 640.63" stroke="rgba(101, 19, 99, 0.24)" stroke-width="1.5"></path><path d="M513.21 640.63L669.75 648.79" stroke="rgba(101, 19, 99, 0.24)" stroke-width="1.5"></path><path d="M514.73 811.71L514.73 811.71" stroke="rgba(101, 19, 99, 0.24)" stroke-width="1.5"></path><path d="M514.73 811.71L652.22 805.96" stroke="rgba(101, 19, 99, 0.24)" stroke-width="1.5"></path><path d="M514.73 811.71L344.66 798.8" stroke="rgba(101, 19, 99, 0.24)" stroke-width="1.5"></path><path d="M514.73 811.71L513.21 640.63" stroke="rgba(101, 19, 99, 0.24)" stroke-width="1.5"></path><path d="M514.73 811.71L391.81 938.81" stroke="rgba(101, 19, 99, 0.24)" stroke-width="1.5"></path><path d="M514.73 811.71L370.64 689.68" stroke="rgba(101, 19, 99, 0.24)" stroke-width="1.5"></path><path d="M492.92 1140.63L492.92 1140.63" stroke="rgba(101, 19, 99, 0.24)" stroke-width="1.5"></path><path d="M492.92 1140.63L523.83 1305.11" stroke="rgba(101, 19, 99, 0.24)" stroke-width="1.5"></path><path d="M492.92 1140.63L662.89 1122.68" stroke="rgba(101, 19, 99, 0.24)" stroke-width="1.5"></path><path d="M492.92 1140.63L412.49 1298.64" stroke="rgba(101, 19, 99, 0.24)" stroke-width="1.5"></path><path d="M492.92 1140.63L391.81 938.81" stroke="rgba(101, 19, 99, 0.24)" stroke-width="1.5"></path><path d="M492.92 1140.63L670.04 978.53" stroke="rgba(101, 19, 99, 0.24)" stroke-width="1.5"></path><path d="M523.83 1305.11L523.83 1305.11" stroke="rgba(101, 19, 99, 0.24)" stroke-width="1.5"></path><path d="M523.83 1305.11L559.83 1424.01" stroke="rgba(101, 19, 99, 0.24)" stroke-width="1.5"></path><path d="M523.83 1305.11L653.02 1396.83" stroke="rgba(101, 19, 99, 0.24)" stroke-width="1.5"></path><path d="M559.83 1424.01L559.83 1424.01" stroke="rgba(101, 19, 99, 0.24)" stroke-width="1.5"></path><path d="M559.83 1424.01L653.02 1396.83" stroke="rgba(101, 19, 99, 0.24)" stroke-width="1.5"></path><path d="M559.83 1424.01L516.94 1564.43" stroke="rgba(101, 19, 99, 0.24)" stroke-width="1.5"></path><path d="M559.83 1424.01L412.49 1298.64" stroke="rgba(101, 19, 99, 0.24)" stroke-width="1.5"></path><path d="M559.83 1424.01L703.23 1276.24" stroke="rgba(101, 19, 99, 0.24)" stroke-width="1.5"></path><path d="M559.83 1424.01L339.24 1605.43" stroke="rgba(101, 19, 99, 0.24)" stroke-width="1.5"></path><path d="M516.94 1564.43L516.94 1564.43" stroke="rgba(101, 19, 99, 0.24)" stroke-width="1.5"></path><path d="M516.94 1564.43L653.02 1396.83" stroke="rgba(101, 19, 99, 0.24)" stroke-width="1.5"></path><path d="M516.94 1564.43L523.83 1305.11" stroke="rgba(101, 19, 99, 0.24)" stroke-width="1.5"></path><path d="M516.94 1564.43L412.49 1298.64" stroke="rgba(101, 19, 99, 0.24)" stroke-width="1.5"></path><path d="M680.09 -87.13L680.09 -87.13" stroke="rgba(101, 19, 99, 0.24)" stroke-width="1.5"></path><path d="M680.09 -87.13L670.63 106.68" stroke="rgba(101, 19, 99, 0.24)" stroke-width="1.5"></path><path d="M670.63 106.68L670.63 106.68" stroke="rgba(101, 19, 99, 0.24)" stroke-width="1.5"></path><path d="M670.63 106.68L704.89 257.88" stroke="rgba(101, 19, 99, 0.24)" stroke-width="1.5"></path><path d="M704.89 257.88L704.89 257.88" stroke="rgba(101, 19, 99, 0.24)" stroke-width="1.5"></path><path d="M704.89 257.88L706.93 406.85" stroke="rgba(101, 19, 99, 0.24)" stroke-width="1.5"></path><path d="M704.89 257.88L508.16 73.32" stroke="rgba(101, 19, 99, 0.24)" stroke-width="1.5"></path><path d="M704.89 257.88L692.46 561.45" stroke="rgba(101, 19, 99, 0.24)" stroke-width="1.5"></path><path d="M706.93 406.85L706.93 406.85" stroke="rgba(101, 19, 99, 0.24)" stroke-width="1.5"></path><path d="M706.93 406.85L692.46 561.45" stroke="rgba(101, 19, 99, 0.24)" stroke-width="1.5"></path><path d="M706.93 406.85L669.75 648.79" stroke="rgba(101, 19, 99, 0.24)" stroke-width="1.5"></path><path d="M692.46 561.45L692.46 561.45" stroke="rgba(101, 19, 99, 0.24)" stroke-width="1.5"></path><path d="M692.46 561.45L669.75 648.79" stroke="rgba(101, 19, 99, 0.24)" stroke-width="1.5"></path><path d="M692.46 561.45L513.21 640.63" stroke="rgba(101, 19, 99, 0.24)" stroke-width="1.5"></path><path d="M692.46 561.45L492.78 554.28" stroke="rgba(101, 19, 99, 0.24)" stroke-width="1.5"></path><path d="M669.75 648.79L669.75 648.79" stroke="rgba(101, 19, 99, 0.24)" stroke-width="1.5"></path><path d="M669.75 648.79L652.22 805.96" stroke="rgba(101, 19, 99, 0.24)" stroke-width="1.5"></path><path d="M669.75 648.79L492.78 554.28" stroke="rgba(101, 19, 99, 0.24)" stroke-width="1.5"></path><path d="M669.75 648.79L514.73 811.71" stroke="rgba(101, 19, 99, 0.24)" stroke-width="1.5"></path><path d="M652.22 805.96L652.22 805.96" stroke="rgba(101, 19, 99, 0.24)" stroke-width="1.5"></path><path d="M652.22 805.96L670.04 978.53" stroke="rgba(101, 19, 99, 0.24)" stroke-width="1.5"></path><path d="M652.22 805.96L513.21 640.63" stroke="rgba(101, 19, 99, 0.24)" stroke-width="1.5"></path><path d="M652.22 805.96L692.46 561.45" stroke="rgba(101, 19, 99, 0.24)" stroke-width="1.5"></path><path d="M652.22 805.96L391.81 938.81" stroke="rgba(101, 19, 99, 0.24)" stroke-width="1.5"></path><path d="M670.04 978.53L670.04 978.53" stroke="rgba(101, 19, 99, 0.24)" stroke-width="1.5"></path><path d="M670.04 978.53L662.89 1122.68" stroke="rgba(101, 19, 99, 0.24)" stroke-width="1.5"></path><path d="M670.04 978.53L514.73 811.71" stroke="rgba(101, 19, 99, 0.24)" stroke-width="1.5"></path><path d="M670.04 978.53L391.81 938.81" stroke="rgba(101, 19, 99, 0.24)" stroke-width="1.5"></path><path d="M662.89 1122.68L662.89 1122.68" stroke="rgba(101, 19, 99, 0.24)" stroke-width="1.5"></path><path d="M662.89 1122.68L703.23 1276.24" stroke="rgba(101, 19, 99, 0.24)" stroke-width="1.5"></path><path d="M703.23 1276.24L703.23 1276.24" stroke="rgba(101, 19, 99, 0.24)" stroke-width="1.5"></path><path d="M703.23 1276.24L653.02 1396.83" stroke="rgba(101, 19, 99, 0.24)" stroke-width="1.5"></path><path d="M703.23 1276.24L523.83 1305.11" stroke="rgba(101, 19, 99, 0.24)" stroke-width="1.5"></path><path d="M653.02 1396.83L653.02 1396.83" stroke="rgba(101, 19, 99, 0.24)" stroke-width="1.5"></path><circle r="5" cx="-97.96" cy="978.38" fill="rgba(101, 19, 99, 0.24)"></circle><circle r="5" cx="-66.5" cy="1119.69" fill="rgba(101, 19, 99, 0.24)"></circle><circle r="5" cx="-97.96" cy="1283.23" fill="rgba(101, 19, 99, 0.24)"></circle><circle r="5" cx="-59.08" cy="1452.46" fill="rgba(101, 19, 99, 0.24)"></circle><circle r="5" cx="37.79" cy="976.75" fill="rgba(101, 19, 99, 0.24)"></circle><circle r="5" cx="104.31" cy="1094.18" fill="rgba(101, 19, 99, 0.24)"></circle><circle r="5" cx="40.59" cy="1299.8" fill="rgba(101, 19, 99, 0.24)"></circle><circle r="5" cx="112.1" cy="1406.77" fill="rgba(101, 19, 99, 0.24)"></circle><circle r="5" cx="82.14" cy="1542.62" fill="rgba(101, 19, 99, 0.24)"></circle><circle r="5" cx="251.21" cy="711.54" fill="rgba(101, 19, 99, 0.24)"></circle><circle r="5" cx="241.79" cy="795.86" fill="rgba(101, 19, 99, 0.24)"></circle><circle r="5" cx="220.9" cy="959.08" fill="rgba(101, 19, 99, 0.24)"></circle><circle r="5" cx="205.01" cy="1120.85" fill="rgba(101, 19, 99, 0.24)"></circle><circle r="5" cx="238.77" cy="1266.28" fill="rgba(101, 19, 99, 0.24)"></circle><circle r="5" cx="198.04" cy="1425.08" fill="rgba(101, 19, 99, 0.24)"></circle><circle r="5" cx="231.33" cy="1596.84" fill="rgba(101, 19, 99, 0.24)"></circle><circle r="5" cx="346.46" cy="-107.65" fill="rgba(101, 19, 99, 0.24)"></circle><circle r="5" cx="373.22" cy="77.29" fill="rgba(101, 19, 99, 0.24)"></circle><circle r="5" cx="349.87" cy="254.6" fill="rgba(101, 19, 99, 0.24)"></circle><circle r="5" cx="348.89" cy="550.07" fill="rgba(101, 19, 99, 0.24)"></circle><circle r="5" cx="370.64" cy="689.68" fill="rgba(101, 19, 99, 0.24)"></circle><circle r="5" cx="344.66" cy="798.8" fill="rgba(101, 19, 99, 0.24)"></circle><circle r="5" cx="391.81" cy="938.81" fill="rgba(101, 19, 99, 0.24)"></circle><circle r="5" cx="345.11" cy="1127.55" fill="rgba(101, 19, 99, 0.24)"></circle><circle r="5" cx="412.49" cy="1298.64" fill="rgba(101, 19, 99, 0.24)"></circle><circle r="5" cx="339.24" cy="1605.43" fill="rgba(101, 19, 99, 0.24)"></circle><circle r="5" cx="551.62" cy="-111.7" fill="rgba(101, 19, 99, 0.24)"></circle><circle r="5" cx="508.16" cy="73.32" fill="rgba(101, 19, 99, 0.24)"></circle><circle r="5" cx="544.17" cy="208.87" fill="rgba(101, 19, 99, 0.24)"></circle><circle r="5" cx="492.78" cy="554.28" fill="rgba(101, 19, 99, 0.24)"></circle><circle r="5" cx="513.21" cy="640.63" fill="rgba(101, 19, 99, 0.24)"></circle><circle r="5" cx="514.73" cy="811.71" fill="rgba(101, 19, 99, 0.24)"></circle><circle r="5" cx="492.92" cy="1140.63" fill="rgba(101, 19, 99, 0.24)"></circle><circle r="5" cx="523.83" cy="1305.11" fill="rgba(101, 19, 99, 0.24)"></circle><circle r="5" cx="559.83" cy="1424.01" fill="rgba(101, 19, 99, 0.24)"></circle><circle r="5" cx="516.94" cy="1564.43" fill="rgba(101, 19, 99, 0.24)"></circle><circle r="5" cx="680.09" cy="-87.13" fill="rgba(101, 19, 99, 0.24)"></circle><circle r="5" cx="670.63" cy="106.68" fill="rgba(101, 19, 99, 0.24)"></circle><circle r="5" cx="704.89" cy="257.88" fill="rgba(101, 19, 99, 0.24)"></circle><circle r="5" cx="706.93" cy="406.85" fill="rgba(101, 19, 99, 0.24)"></circle><circle r="5" cx="692.46" cy="561.45" fill="rgba(101, 19, 99, 0.24)"></circle><circle r="5" cx="669.75" cy="648.79" fill="rgba(101, 19, 99, 0.24)"></circle><circle r="5" cx="652.22" cy="805.96" fill="rgba(101, 19, 99, 0.24)"></circle><circle r="5" cx="670.04" cy="978.53" fill="rgba(101, 19, 99, 0.24)"></circle><circle r="5" cx="662.89" cy="1122.68" fill="rgba(101, 19, 99, 0.24)"></circle><circle r="5" cx="703.23" cy="1276.24" fill="rgba(101, 19, 99, 0.24)"></circle><circle r="5" cx="653.02" cy="1396.83" fill="rgba(101, 19, 99, 0.24)"></circle><path d="M-91.92 1135.24L-91.92 1135.24" stroke="hsla(278.79999999999995, 77.2%, 51.5%, 0.38)" stroke-width="1.5"></path><path d="M-91.92 1135.24L-104.62 1239.16" stroke="hsla(278.79999999999995, 77.2%, 51.5%, 0.38)" stroke-width="1.5"></path><path d="M-91.92 1135.24L70.48 1285.94" stroke="hsla(278.79999999999995, 77.2%, 51.5%, 0.38)" stroke-width="1.5"></path><path d="M111.8 1563.7L111.8 1563.7" stroke="hsla(278.79999999999995, 77.2%, 51.5%, 0.38)" stroke-width="1.5"></path><path d="M111.8 1563.7L239.84 1587.25" stroke="hsla(278.79999999999995, 77.2%, 51.5%, 0.38)" stroke-width="1.5"></path><path d="M111.8 1563.7L205.28 1460.59" stroke="hsla(278.79999999999995, 77.2%, 51.5%, 0.38)" stroke-width="1.5"></path><path d="M250.7 988.26L250.7 988.26" stroke="hsla(278.79999999999995, 77.2%, 51.5%, 0.38)" stroke-width="1.5"></path><path d="M250.7 988.26L356.23 996" stroke="hsla(278.79999999999995, 77.2%, 51.5%, 0.38)" stroke-width="1.5"></path><path d="M250.7 988.26L351.04 1099.17" stroke="hsla(278.79999999999995, 77.2%, 51.5%, 0.38)" stroke-width="1.5"></path><path d="M250.7 988.26L358.64 790.53" stroke="hsla(278.79999999999995, 77.2%, 51.5%, 0.38)" stroke-width="1.5"></path><path d="M250.7 988.26L495.63 967.78" stroke="hsla(278.79999999999995, 77.2%, 51.5%, 0.38)" stroke-width="1.5"></path><path d="M250.7 988.26L496.28 1142.15" stroke="hsla(278.79999999999995, 77.2%, 51.5%, 0.38)" stroke-width="1.5"></path><path d="M250.7 988.26L394.34 1266.79" stroke="hsla(278.79999999999995, 77.2%, 51.5%, 0.38)" stroke-width="1.5"></path><path d="M239.84 1587.25L239.84 1587.25" stroke="hsla(278.79999999999995, 77.2%, 51.5%, 0.38)" stroke-width="1.5"></path><path d="M239.84 1587.25L344.75 1570.67" stroke="hsla(278.79999999999995, 77.2%, 51.5%, 0.38)" stroke-width="1.5"></path><path d="M358.64 790.53L358.64 790.53" stroke="hsla(278.79999999999995, 77.2%, 51.5%, 0.38)" stroke-width="1.5"></path><path d="M358.64 790.53L394.06 665.22" stroke="hsla(278.79999999999995, 77.2%, 51.5%, 0.38)" stroke-width="1.5"></path><path d="M358.64 790.53L526.14 802.03" stroke="hsla(278.79999999999995, 77.2%, 51.5%, 0.38)" stroke-width="1.5"></path><path d="M358.64 790.53L356.23 996" stroke="hsla(278.79999999999995, 77.2%, 51.5%, 0.38)" stroke-width="1.5"></path><path d="M351.04 1099.17L351.04 1099.17" stroke="hsla(278.79999999999995, 77.2%, 51.5%, 0.38)" stroke-width="1.5"></path><path d="M351.04 1099.17L356.23 996" stroke="hsla(278.79999999999995, 77.2%, 51.5%, 0.38)" stroke-width="1.5"></path><path d="M351.04 1099.17L496.28 1142.15" stroke="hsla(278.79999999999995, 77.2%, 51.5%, 0.38)" stroke-width="1.5"></path><path d="M394.34 1266.79L394.34 1266.79" stroke="hsla(278.79999999999995, 77.2%, 51.5%, 0.38)" stroke-width="1.5"></path><path d="M394.34 1266.79L392.54 1388.27" stroke="hsla(278.79999999999995, 77.2%, 51.5%, 0.38)" stroke-width="1.5"></path><path d="M394.34 1266.79L255.63 1310.64" stroke="hsla(278.79999999999995, 77.2%, 51.5%, 0.38)" stroke-width="1.5"></path><path d="M394.34 1266.79L542.81 1294.21" stroke="hsla(278.79999999999995, 77.2%, 51.5%, 0.38)" stroke-width="1.5"></path><path d="M394.34 1266.79L496.28 1142.15" stroke="hsla(278.79999999999995, 77.2%, 51.5%, 0.38)" stroke-width="1.5"></path><path d="M394.34 1266.79L351.04 1099.17" stroke="hsla(278.79999999999995, 77.2%, 51.5%, 0.38)" stroke-width="1.5"></path><path d="M539.72 97.62L539.72 97.62" stroke="hsla(278.79999999999995, 77.2%, 51.5%, 0.38)" stroke-width="1.5"></path><path d="M539.72 97.62L532.32 206.87" stroke="hsla(278.79999999999995, 77.2%, 51.5%, 0.38)" stroke-width="1.5"></path><path d="M539.72 97.62L674.58 75.68" stroke="hsla(278.79999999999995, 77.2%, 51.5%, 0.38)" stroke-width="1.5"></path><path d="M539.72 97.62L489.6 -85.03" stroke="hsla(278.79999999999995, 77.2%, 51.5%, 0.38)" stroke-width="1.5"></path><path d="M539.72 97.62L676.4 249.04" stroke="hsla(278.79999999999995, 77.2%, 51.5%, 0.38)" stroke-width="1.5"></path><path d="M539.72 97.62L683.19 -70.34" stroke="hsla(278.79999999999995, 77.2%, 51.5%, 0.38)" stroke-width="1.5"></path><path d="M539.72 97.62L500.16 402.22" stroke="hsla(278.79999999999995, 77.2%, 51.5%, 0.38)" stroke-width="1.5"></path><path d="M674.58 75.68L674.58 75.68" stroke="hsla(278.79999999999995, 77.2%, 51.5%, 0.38)" stroke-width="1.5"></path><path d="M674.58 75.68L683.19 -70.34" stroke="hsla(278.79999999999995, 77.2%, 51.5%, 0.38)" stroke-width="1.5"></path><path d="M674.58 75.68L676.4 249.04" stroke="hsla(278.79999999999995, 77.2%, 51.5%, 0.38)" stroke-width="1.5"></path><path d="M674.58 75.68L532.32 206.87" stroke="hsla(278.79999999999995, 77.2%, 51.5%, 0.38)" stroke-width="1.5"></path><path d="M690.23 489.39L690.23 489.39" stroke="hsla(278.79999999999995, 77.2%, 51.5%, 0.38)" stroke-width="1.5"></path><path d="M690.23 489.39L547.74 509.41" stroke="hsla(278.79999999999995, 77.2%, 51.5%, 0.38)" stroke-width="1.5"></path><path d="M690.23 489.39L683.31 653.31" stroke="hsla(278.79999999999995, 77.2%, 51.5%, 0.38)" stroke-width="1.5"></path><path d="M681.04 1125.93L681.04 1125.93" stroke="hsla(278.79999999999995, 77.2%, 51.5%, 0.38)" stroke-width="1.5"></path><path d="M681.04 1125.93L671.42 1006.3" stroke="hsla(278.79999999999995, 77.2%, 51.5%, 0.38)" stroke-width="1.5"></path><path d="M681.04 1125.93L682.87 1287.57" stroke="hsla(278.79999999999995, 77.2%, 51.5%, 0.38)" stroke-width="1.5"></path><path d="M681.04 1125.93L496.28 1142.15" stroke="hsla(278.79999999999995, 77.2%, 51.5%, 0.38)" stroke-width="1.5"></path><path d="M-104.62 1239.16L-104.62 1239.16" stroke="hsla(278.79999999999995, 77.2%, 51.5%, 0.38)" stroke-width="1.5"></path><path d="M-104.62 1239.16L70.48 1285.94" stroke="hsla(278.79999999999995, 77.2%, 51.5%, 0.38)" stroke-width="1.5"></path><path d="M-104.62 1239.16L-44.33 1454.34" stroke="hsla(278.79999999999995, 77.2%, 51.5%, 0.38)" stroke-width="1.5"></path><path d="M-104.62 1239.16L96.62 1398.8" stroke="hsla(278.79999999999995, 77.2%, 51.5%, 0.38)" stroke-width="1.5"></path><path d="M-104.62 1239.16L255.63 1310.64" stroke="hsla(278.79999999999995, 77.2%, 51.5%, 0.38)" stroke-width="1.5"></path><path d="M-104.62 1239.16L-67.93 1605.11" stroke="hsla(278.79999999999995, 77.2%, 51.5%, 0.38)" stroke-width="1.5"></path><path d="M-44.33 1454.34L-44.33 1454.34" stroke="hsla(278.79999999999995, 77.2%, 51.5%, 0.38)" stroke-width="1.5"></path><path d="M-44.33 1454.34L96.62 1398.8" stroke="hsla(278.79999999999995, 77.2%, 51.5%, 0.38)" stroke-width="1.5"></path><path d="M-44.33 1454.34L-67.93 1605.11" stroke="hsla(278.79999999999995, 77.2%, 51.5%, 0.38)" stroke-width="1.5"></path><path d="M-44.33 1454.34L111.8 1563.7" stroke="hsla(278.79999999999995, 77.2%, 51.5%, 0.38)" stroke-width="1.5"></path><path d="M-67.93 1605.11L-67.93 1605.11" stroke="hsla(278.79999999999995, 77.2%, 51.5%, 0.38)" stroke-width="1.5"></path><path d="M70.48 1285.94L70.48 1285.94" stroke="hsla(278.79999999999995, 77.2%, 51.5%, 0.38)" stroke-width="1.5"></path><path d="M70.48 1285.94L96.62 1398.8" stroke="hsla(278.79999999999995, 77.2%, 51.5%, 0.38)" stroke-width="1.5"></path><path d="M96.62 1398.8L96.62 1398.8" stroke="hsla(278.79999999999995, 77.2%, 51.5%, 0.38)" stroke-width="1.5"></path><path d="M96.62 1398.8L205.28 1460.59" stroke="hsla(278.79999999999995, 77.2%, 51.5%, 0.38)" stroke-width="1.5"></path><path d="M96.62 1398.8L111.8 1563.7" stroke="hsla(278.79999999999995, 77.2%, 51.5%, 0.38)" stroke-width="1.5"></path><path d="M255.63 1310.64L255.63 1310.64" stroke="hsla(278.79999999999995, 77.2%, 51.5%, 0.38)" stroke-width="1.5"></path><path d="M255.63 1310.64L392.54 1388.27" stroke="hsla(278.79999999999995, 77.2%, 51.5%, 0.38)" stroke-width="1.5"></path><path d="M205.28 1460.59L205.28 1460.59" stroke="hsla(278.79999999999995, 77.2%, 51.5%, 0.38)" stroke-width="1.5"></path><path d="M205.28 1460.59L239.84 1587.25" stroke="hsla(278.79999999999995, 77.2%, 51.5%, 0.38)" stroke-width="1.5"></path><path d="M205.28 1460.59L255.63 1310.64" stroke="hsla(278.79999999999995, 77.2%, 51.5%, 0.38)" stroke-width="1.5"></path><path d="M394.06 665.22L394.06 665.22" stroke="hsla(278.79999999999995, 77.2%, 51.5%, 0.38)" stroke-width="1.5"></path><path d="M394.06 665.22L553.71 684.17" stroke="hsla(278.79999999999995, 77.2%, 51.5%, 0.38)" stroke-width="1.5"></path><path d="M356.23 996L356.23 996" stroke="hsla(278.79999999999995, 77.2%, 51.5%, 0.38)" stroke-width="1.5"></path><path d="M356.23 996L495.63 967.78" stroke="hsla(278.79999999999995, 77.2%, 51.5%, 0.38)" stroke-width="1.5"></path><path d="M356.23 996L496.28 1142.15" stroke="hsla(278.79999999999995, 77.2%, 51.5%, 0.38)" stroke-width="1.5"></path><path d="M392.54 1388.27L392.54 1388.27" stroke="hsla(278.79999999999995, 77.2%, 51.5%, 0.38)" stroke-width="1.5"></path><path d="M344.75 1570.67L344.75 1570.67" stroke="hsla(278.79999999999995, 77.2%, 51.5%, 0.38)" stroke-width="1.5"></path><path d="M344.75 1570.67L491.3 1589.84" stroke="hsla(278.79999999999995, 77.2%, 51.5%, 0.38)" stroke-width="1.5"></path><path d="M344.75 1570.67L205.28 1460.59" stroke="hsla(278.79999999999995, 77.2%, 51.5%, 0.38)" stroke-width="1.5"></path><path d="M344.75 1570.67L392.54 1388.27" stroke="hsla(278.79999999999995, 77.2%, 51.5%, 0.38)" stroke-width="1.5"></path><path d="M344.75 1570.67L111.8 1563.7" stroke="hsla(278.79999999999995, 77.2%, 51.5%, 0.38)" stroke-width="1.5"></path><path d="M344.75 1570.67L547.62 1453.78" stroke="hsla(278.79999999999995, 77.2%, 51.5%, 0.38)" stroke-width="1.5"></path><path d="M489.6 -85.03L489.6 -85.03" stroke="hsla(278.79999999999995, 77.2%, 51.5%, 0.38)" stroke-width="1.5"></path><path d="M489.6 -85.03L683.19 -70.34" stroke="hsla(278.79999999999995, 77.2%, 51.5%, 0.38)" stroke-width="1.5"></path><path d="M489.6 -85.03L674.58 75.68" stroke="hsla(278.79999999999995, 77.2%, 51.5%, 0.38)" stroke-width="1.5"></path><path d="M532.32 206.87L532.32 206.87" stroke="hsla(278.79999999999995, 77.2%, 51.5%, 0.38)" stroke-width="1.5"></path><path d="M532.32 206.87L676.4 249.04" stroke="hsla(278.79999999999995, 77.2%, 51.5%, 0.38)" stroke-width="1.5"></path><path d="M500.16 402.22L500.16 402.22" stroke="hsla(278.79999999999995, 77.2%, 51.5%, 0.38)" stroke-width="1.5"></path><path d="M500.16 402.22L547.74 509.41" stroke="hsla(278.79999999999995, 77.2%, 51.5%, 0.38)" stroke-width="1.5"></path><path d="M500.16 402.22L532.32 206.87" stroke="hsla(278.79999999999995, 77.2%, 51.5%, 0.38)" stroke-width="1.5"></path><path d="M500.16 402.22L690.23 489.39" stroke="hsla(278.79999999999995, 77.2%, 51.5%, 0.38)" stroke-width="1.5"></path><path d="M500.16 402.22L676.4 249.04" stroke="hsla(278.79999999999995, 77.2%, 51.5%, 0.38)" stroke-width="1.5"></path><path d="M500.16 402.22L394.06 665.22" stroke="hsla(278.79999999999995, 77.2%, 51.5%, 0.38)" stroke-width="1.5"></path><path d="M547.74 509.41L547.74 509.41" stroke="hsla(278.79999999999995, 77.2%, 51.5%, 0.38)" stroke-width="1.5"></path><path d="M547.74 509.41L553.71 684.17" stroke="hsla(278.79999999999995, 77.2%, 51.5%, 0.38)" stroke-width="1.5"></path><path d="M547.74 509.41L683.31 653.31" stroke="hsla(278.79999999999995, 77.2%, 51.5%, 0.38)" stroke-width="1.5"></path><path d="M547.74 509.41L394.06 665.22" stroke="hsla(278.79999999999995, 77.2%, 51.5%, 0.38)" stroke-width="1.5"></path><path d="M547.74 509.41L676.4 249.04" stroke="hsla(278.79999999999995, 77.2%, 51.5%, 0.38)" stroke-width="1.5"></path><path d="M553.71 684.17L553.71 684.17" stroke="hsla(278.79999999999995, 77.2%, 51.5%, 0.38)" stroke-width="1.5"></path><path d="M553.71 684.17L526.14 802.03" stroke="hsla(278.79999999999995, 77.2%, 51.5%, 0.38)" stroke-width="1.5"></path><path d="M553.71 684.17L683.31 653.31" stroke="hsla(278.79999999999995, 77.2%, 51.5%, 0.38)" stroke-width="1.5"></path><path d="M553.71 684.17L658.53 796.09" stroke="hsla(278.79999999999995, 77.2%, 51.5%, 0.38)" stroke-width="1.5"></path><path d="M553.71 684.17L358.64 790.53" stroke="hsla(278.79999999999995, 77.2%, 51.5%, 0.38)" stroke-width="1.5"></path><path d="M526.14 802.03L526.14 802.03" stroke="hsla(278.79999999999995, 77.2%, 51.5%, 0.38)" stroke-width="1.5"></path><path d="M526.14 802.03L658.53 796.09" stroke="hsla(278.79999999999995, 77.2%, 51.5%, 0.38)" stroke-width="1.5"></path><path d="M526.14 802.03L495.63 967.78" stroke="hsla(278.79999999999995, 77.2%, 51.5%, 0.38)" stroke-width="1.5"></path><path d="M495.63 967.78L495.63 967.78" stroke="hsla(278.79999999999995, 77.2%, 51.5%, 0.38)" stroke-width="1.5"></path><path d="M496.28 1142.15L496.28 1142.15" stroke="hsla(278.79999999999995, 77.2%, 51.5%, 0.38)" stroke-width="1.5"></path><path d="M496.28 1142.15L542.81 1294.21" stroke="hsla(278.79999999999995, 77.2%, 51.5%, 0.38)" stroke-width="1.5"></path><path d="M496.28 1142.15L495.63 967.78" stroke="hsla(278.79999999999995, 77.2%, 51.5%, 0.38)" stroke-width="1.5"></path><path d="M542.81 1294.21L542.81 1294.21" stroke="hsla(278.79999999999995, 77.2%, 51.5%, 0.38)" stroke-width="1.5"></path><path d="M542.81 1294.21L682.87 1287.57" stroke="hsla(278.79999999999995, 77.2%, 51.5%, 0.38)" stroke-width="1.5"></path><path d="M542.81 1294.21L547.62 1453.78" stroke="hsla(278.79999999999995, 77.2%, 51.5%, 0.38)" stroke-width="1.5"></path><path d="M542.81 1294.21L392.54 1388.27" stroke="hsla(278.79999999999995, 77.2%, 51.5%, 0.38)" stroke-width="1.5"></path><path d="M547.62 1453.78L547.62 1453.78" stroke="hsla(278.79999999999995, 77.2%, 51.5%, 0.38)" stroke-width="1.5"></path><path d="M547.62 1453.78L675.59 1452.97" stroke="hsla(278.79999999999995, 77.2%, 51.5%, 0.38)" stroke-width="1.5"></path><path d="M547.62 1453.78L491.3 1589.84" stroke="hsla(278.79999999999995, 77.2%, 51.5%, 0.38)" stroke-width="1.5"></path><path d="M547.62 1453.78L392.54 1388.27" stroke="hsla(278.79999999999995, 77.2%, 51.5%, 0.38)" stroke-width="1.5"></path><path d="M547.62 1453.78L682.87 1287.57" stroke="hsla(278.79999999999995, 77.2%, 51.5%, 0.38)" stroke-width="1.5"></path><path d="M491.3 1589.84L491.3 1589.84" stroke="hsla(278.79999999999995, 77.2%, 51.5%, 0.38)" stroke-width="1.5"></path><path d="M491.3 1589.84L392.54 1388.27" stroke="hsla(278.79999999999995, 77.2%, 51.5%, 0.38)" stroke-width="1.5"></path><path d="M491.3 1589.84L675.59 1452.97" stroke="hsla(278.79999999999995, 77.2%, 51.5%, 0.38)" stroke-width="1.5"></path><path d="M683.19 -70.34L683.19 -70.34" stroke="hsla(278.79999999999995, 77.2%, 51.5%, 0.38)" stroke-width="1.5"></path><path d="M676.4 249.04L676.4 249.04" stroke="hsla(278.79999999999995, 77.2%, 51.5%, 0.38)" stroke-width="1.5"></path><path d="M683.31 653.31L683.31 653.31" stroke="hsla(278.79999999999995, 77.2%, 51.5%, 0.38)" stroke-width="1.5"></path><path d="M683.31 653.31L658.53 796.09" stroke="hsla(278.79999999999995, 77.2%, 51.5%, 0.38)" stroke-width="1.5"></path><path d="M683.31 653.31L526.14 802.03" stroke="hsla(278.79999999999995, 77.2%, 51.5%, 0.38)" stroke-width="1.5"></path><path d="M658.53 796.09L658.53 796.09" stroke="hsla(278.79999999999995, 77.2%, 51.5%, 0.38)" stroke-width="1.5"></path><path d="M671.42 1006.3L671.42 1006.3" stroke="hsla(278.79999999999995, 77.2%, 51.5%, 0.38)" stroke-width="1.5"></path><path d="M671.42 1006.3L495.63 967.78" stroke="hsla(278.79999999999995, 77.2%, 51.5%, 0.38)" stroke-width="1.5"></path><path d="M671.42 1006.3L658.53 796.09" stroke="hsla(278.79999999999995, 77.2%, 51.5%, 0.38)" stroke-width="1.5"></path><path d="M682.87 1287.57L682.87 1287.57" stroke="hsla(278.79999999999995, 77.2%, 51.5%, 0.38)" stroke-width="1.5"></path><path d="M682.87 1287.57L675.59 1452.97" stroke="hsla(278.79999999999995, 77.2%, 51.5%, 0.38)" stroke-width="1.5"></path><path d="M675.59 1452.97L675.59 1452.97" stroke="hsla(278.79999999999995, 77.2%, 51.5%, 0.38)" stroke-width="1.5"></path><path d="M675.59 1452.97L542.81 1294.21" stroke="hsla(278.79999999999995, 77.2%, 51.5%, 0.38)" stroke-width="1.5"></path><circle r="25" cx="-91.92" cy="1135.24" fill="url(#SvgjsRadialGradient1027)"></circle><circle r="25" cx="111.8" cy="1563.7" fill="url(#SvgjsRadialGradient1027)"></circle><circle r="25" cx="250.7" cy="988.26" fill="url(#SvgjsRadialGradient1027)"></circle><circle r="25" cx="239.84" cy="1587.25" fill="url(#SvgjsRadialGradient1027)"></circle><circle r="25" cx="358.64" cy="790.53" fill="url(#SvgjsRadialGradient1027)"></circle><circle r="25" cx="351.04" cy="1099.17" fill="url(#SvgjsRadialGradient1027)"></circle><circle r="25" cx="394.34" cy="1266.79" fill="url(#SvgjsRadialGradient1027)"></circle><circle r="25" cx="539.72" cy="97.62" fill="url(#SvgjsRadialGradient1027)"></circle><circle r="25" cx="674.58" cy="75.68" fill="url(#SvgjsRadialGradient1027)"></circle><circle r="25" cx="690.23" cy="489.39" fill="url(#SvgjsRadialGradient1027)"></circle><circle r="25" cx="681.04" cy="1125.93" fill="url(#SvgjsRadialGradient1027)"></circle><circle r="5" cx="-104.62" cy="1239.16" fill="rgba(230, 211, 241, 0.69)"></circle><circle r="5" cx="-44.33" cy="1454.34" fill="rgba(230, 211, 241, 0.69)"></circle><circle r="5" cx="-67.93" cy="1605.11" fill="rgba(230, 211, 241, 0.69)"></circle><circle r="5" cx="70.48" cy="1285.94" fill="rgba(230, 211, 241, 0.69)"></circle><circle r="5" cx="96.62" cy="1398.8" fill="rgba(230, 211, 241, 0.69)"></circle><circle r="5" cx="255.63" cy="1310.64" fill="rgba(230, 211, 241, 0.69)"></circle><circle r="5" cx="205.28" cy="1460.59" fill="rgba(230, 211, 241, 0.69)"></circle><circle r="5" cx="394.06" cy="665.22" fill="rgba(230, 211, 241, 0.69)"></circle><circle r="5" cx="356.23" cy="996" fill="rgba(230, 211, 241, 0.69)"></circle><circle r="5" cx="392.54" cy="1388.27" fill="rgba(230, 211, 241, 0.69)"></circle><circle r="5" cx="344.75" cy="1570.67" fill="rgba(230, 211, 241, 0.69)"></circle><circle r="5" cx="489.6" cy="-85.03" fill="rgba(230, 211, 241, 0.69)"></circle><circle r="5" cx="532.32" cy="206.87" fill="rgba(230, 211, 241, 0.69)"></circle><circle r="5" cx="500.16" cy="402.22" fill="rgba(230, 211, 241, 0.69)"></circle><circle r="5" cx="547.74" cy="509.41" fill="rgba(230, 211, 241, 0.69)"></circle><circle r="5" cx="553.71" cy="684.17" fill="rgba(230, 211, 241, 0.69)"></circle><circle r="5" cx="526.14" cy="802.03" fill="rgba(230, 211, 241, 0.69)"></circle><circle r="5" cx="495.63" cy="967.78" fill="rgba(230, 211, 241, 0.69)"></circle><circle r="5" cx="496.28" cy="1142.15" fill="rgba(230, 211, 241, 0.69)"></circle><circle r="5" cx="542.81" cy="1294.21" fill="rgba(230, 211, 241, 0.69)"></circle><circle r="5" cx="547.62" cy="1453.78" fill="rgba(230, 211, 241, 0.69)"></circle><circle r="5" cx="491.3" cy="1589.84" fill="rgba(230, 211, 241, 0.69)"></circle><circle r="5" cx="683.19" cy="-70.34" fill="rgba(230, 211, 241, 0.69)"></circle><circle r="5" cx="676.4" cy="249.04" fill="rgba(230, 211, 241, 0.69)"></circle><circle r="5" cx="683.31" cy="653.31" fill="rgba(230, 211, 241, 0.69)"></circle><circle r="5" cx="658.53" cy="796.09" fill="rgba(230, 211, 241, 0.69)"></circle><circle r="5" cx="671.42" cy="1006.3" fill="rgba(230, 211, 241, 0.69)"></circle><circle r="5" cx="682.87" cy="1287.57" fill="rgba(230, 211, 241, 0.69)"></circle><circle r="5" cx="675.59" cy="1452.97" fill="rgba(230, 211, 241, 0.69)"></circle></g><defs><mask id="SvgjsMask1026"><rect width="560" height="1440" fill="#ffffff"></rect></mask><radialGradient id="SvgjsRadialGradient1027"><stop stop-color="#ffffff" offset="0.1"></stop><stop stop-color="rgba(124, 23, 179, 0.38)" offset="0.2"></stop><stop stop-color="rgba(124, 23, 179, 0)" offset="1"></stop></radialGradient></defs></svg>